<svg xmlns="http://www.w3.org/2000/svg" width="13.348" height="14.544" viewBox="0 0 13.348 14.544"><g transform="translate(0 0.005)"><path d="M7.627,7.229a.369.369,0,1,0,0-.739h-4.7a.369.369,0,0,0,0,.739Zm1.54-4.9L11.309.066a.21.21,0,0,1,.26-.041l1.723,1.669a.183.183,0,0,1-.014.273L11.1,4.274,9.167,2.331ZM10.385,5l-2.209.457.279-2.4L10.385,5ZM2.265,1.545H7.2l-.361.763H2.265a1.507,1.507,0,0,0-1.5,1.5V9.225a1.507,1.507,0,0,0,1.5,1.5h.465a.38.38,0,0,1,.354.406l-.149,2.142L5.774,11.56a.377.377,0,0,1,.269-.11h4.417a1.507,1.507,0,0,0,1.5-1.5V5.967h.791V11.02c.041,1.14-.424,1.78-2.3,1.858l-3.817-.088L2.761,14.432l-.019.015a.382.382,0,0,1-.628-.315L2.3,11.489H2.267A2.273,2.273,0,0,1,0,9.226V3.811A2.271,2.271,0,0,1,2.265,1.545ZM9.432,9.278a.369.369,0,0,0,0-.739h-6.5a.369.369,0,0,0,0,.739Zm-3.468-4.1a.369.369,0,0,0,.369-.369.378.378,0,0,0-.369-.369H2.929a.369.369,0,0,0,0,.739Z" transform="translate(0 0)" fill="#c700d4"/></g></svg>