<svg xmlns="http://www.w3.org/2000/svg" width="13.513" height="13.352" viewBox="0 0 13.513 13.352"><g transform="translate(0 -0.009)"><path d="M0,13.361V11.2c1.155-.514,4.69-1.491,4.856-2.9A18.967,18.967,0,0,0,3.969,6.18a2.13,2.13,0,0,1-.1-2.145,4.487,4.487,0,0,0,.092-1.488c0-3.384,5.93-3.385,5.93,0,0,.428-.1,1.214.134,1.551a2.155,2.155,0,0,1-.14,2.082c-.21.613-1.01,1.772-.941,2.118.254,1.291,3.533,2.159,4.566,2.617V13.36Z" transform="translate(0 0)" fill="#c700d4" fill-rule="evenodd"/></g></svg>