<svg xmlns="http://www.w3.org/2000/svg" width="15.081" height="16.912" viewBox="0 0 15.081 16.912"><g transform="translate(-3354.919 -1406)"><path d="M4.657,16.6l-.639-.475a1.643,1.643,0,0,1-.35-2.26L6.638,9.686A6.544,6.544,0,0,1,5.8,6.47,6.405,6.405,0,0,1,12.124,0a6.4,6.4,0,0,1,6.322,6.47,6.4,6.4,0,0,1-6.322,6.469A6.168,6.168,0,0,1,9.6,12.4l-2.73,3.845a1.568,1.568,0,0,1-1.281.667A1.551,1.551,0,0,1,4.657,16.6ZM9.147,6.47a2.978,2.978,0,1,0,2.977-3.046A3.015,3.015,0,0,0,9.147,6.47Z" transform="translate(3351.554 1406)" fill="#c700d4"/></g></svg>