<svg xmlns="http://www.w3.org/2000/svg" width="12.845" height="13.352" viewBox="0 0 12.845 13.352"><g transform="translate(0 0.005)"><path d="M.42,5.6H3.28a.471.471,0,0,1,.42.507V12.84a.472.472,0,0,1-.42.507H.42A.471.471,0,0,1,0,12.84V6.111A.471.471,0,0,1,.42,5.6ZM6.592.556C6.813-.8,8.653.449,8.774,2.629a11.238,11.238,0,0,1-.157,2.309h2.629a1.643,1.643,0,0,1,1.374,2.54c.154.674.177,1.465-.24,1.777a2.918,2.918,0,0,1-.65,2.244,3.066,3.066,0,0,1-.338,1.368c-.353.6-.64.456-1.2.456H5.756A1.635,1.635,0,0,1,4.209,12.4V6.448C5.533,6.018,6.236,3.84,6.592,2.41V.556Z" transform="translate(0 0)" fill="#c700d4" fill-rule="evenodd"/></g></svg>